<?xml version="1.0" encoding="utf-8"?>
<!-- Generator: Adobe Illustrator 24.0.0, SVG Export Plug-In . SVG Version: 6.00 Build 0)  -->
<svg version="1.1" id="Capa_1" xmlns="http://www.w3.org/2000/svg" xmlns:xlink="http://www.w3.org/1999/xlink" x="0px" y="0px"
	 viewBox="0 0 100 75.7" style="enable-background:new 0 0 100 75.7;" xml:space="preserve">
<style type="text/css">
	.st0{fill:#30B3A1;}
</style>
<g id="XMLID_2392_">
	<g id="XMLID_2393_">
		<path id="XMLID_2398_" class="st0" d="M43.1,18.8c6.8,0,7.6,0,10.3,0.1c2.5,0.1,3.8,0.5,4.7,0.9c1.2,0.5,2,1,2.9,1.9
			c0.9,0.9,1.4,1.7,1.9,2.9c0.3,0.9,0.8,2.2,0.9,4.7c0.1,2.7,0.1,3.5,0.1,10.3c0,6.8,0,7.6-0.1,10.3c-0.1,2.5-0.5,3.8-0.9,4.7
			c-0.5,1.2-1,2-1.9,2.9c-0.9,0.9-1.7,1.4-2.9,1.9c-0.9,0.3-2.3,0.8-4.7,0.9c-2.7,0.1-3.5,0.1-10.3,0.1c-6.8,0-7.6,0-10.3-0.1
			c-2.5-0.1-3.8-0.5-4.7-0.9c-1.2-0.5-2-1-2.9-1.9c-0.9-0.9-1.4-1.7-1.9-2.9c-0.3-0.9-0.8-2.2-0.9-4.7c-0.1-2.7-0.1-3.5-0.1-10.3
			c0-6.8,0-7.6,0.1-10.3c0.1-2.5,0.5-3.8,0.9-4.7c0.5-1.2,1-2,1.9-2.9c0.9-0.9,1.7-1.4,2.9-1.9c0.9-0.3,2.2-0.8,4.7-0.9
			C35.4,18.8,36.2,18.8,43.1,18.8 M43.1,14.2c-6.9,0-7.8,0-10.5,0.2c-2.7,0.1-4.6,0.6-6.2,1.2c-1.7,0.7-3.1,1.5-4.5,2.9
			c-1.4,1.4-2.3,2.8-2.9,4.5c-0.6,1.6-1.1,3.5-1.2,6.2c-0.1,2.7-0.2,3.6-0.2,10.5c0,6.9,0,7.8,0.2,10.5c0.1,2.7,0.6,4.6,1.2,6.2
			c0.7,1.7,1.5,3.1,2.9,4.5c1.4,1.4,2.8,2.3,4.5,2.9c1.6,0.6,3.5,1.1,6.2,1.2c2.7,0.1,3.6,0.2,10.5,0.2c6.9,0,7.8,0,10.5-0.2
			c2.7-0.1,4.6-0.6,6.2-1.2c1.7-0.7,3.1-1.5,4.5-2.9c1.4-1.4,2.3-2.8,2.9-4.5c0.6-1.6,1.1-3.5,1.2-6.2c0.1-2.7,0.2-3.6,0.2-10.5
			c0-6.9,0-7.8-0.2-10.5c-0.1-2.7-0.6-4.6-1.2-6.2c-0.7-1.7-1.5-3.1-2.9-4.5c-1.4-1.4-2.8-2.3-4.5-2.9c-1.6-0.6-3.5-1.1-6.2-1.2
			C50.9,14.2,50,14.2,43.1,14.2"/>
		<path id="XMLID_2395_" class="st0" d="M43.1,26.6c-7.2,0-13.1,5.9-13.1,13.1s5.9,13.1,13.1,13.1c7.2,0,13.1-5.9,13.1-13.1
			S50.3,26.6,43.1,26.6 M43.1,48.2c-4.7,0-8.5-3.8-8.5-8.5c0-4.7,3.8-8.5,8.5-8.5c4.7,0,8.5,3.8,8.5,8.5
			C51.6,44.4,47.8,48.2,43.1,48.2"/>
		<path id="XMLID_2394_" class="st0" d="M59.7,26.1c0,1.7-1.4,3.1-3.1,3.1c-1.7,0-3.1-1.4-3.1-3.1S55,23,56.7,23
			C58.4,23,59.7,24.4,59.7,26.1"/>
	</g>
</g>
</svg>
