<?xml version="1.0" encoding="utf-8"?>
<!-- Generator: Adobe Illustrator 24.0.0, SVG Export Plug-In . SVG Version: 6.00 Build 0)  -->
<svg version="1.1" id="Capa_1" xmlns="http://www.w3.org/2000/svg" xmlns:xlink="http://www.w3.org/1999/xlink" x="0px" y="0px"
	 viewBox="0 0 177.1 176.3" style="enable-background:new 0 0 177.1 176.3;" xml:space="preserve">
<style type="text/css">
	.st0{fill:#CA6715;}
	.st1{fill:#EF9C03;}
</style>
<title>Recurso 1</title>
<g>
	<path class="st0" d="M26.6,99.2c0.1,0,0.2,0,0.2,0.1c0,0,0,0,0,0.1c0.1,0.6,0.2,1.5,0.4,2.8s0.3,2.1,0.4,2.8l0.1,0.8
		c0,0.3,0.1,0.5,0.2,0.8c0.1,0.1,0.3,0.2,0.7,0.1l2.6-0.4c0.5-0.1,0.7-0.2,0.7-0.4c-0.1-0.7-0.3-1.7-0.6-3.1s-0.5-2.4-0.6-3.1
		c0-0.2,0-0.2,0.1-0.3l0.5-0.1l0.5-0.1l0.6-0.1l0.6-0.1c0.1,0,0.1,0,0.2,0.2c0.1,0.5,0.2,1.2,0.4,2.3c0.1,1,0.3,1.8,0.3,2.3
		c0.2,0.9,0.3,1.4,0.3,1.6c0.1,0.3,0.3,0.4,0.5,0.4c0.6-0.1,1.6-0.3,2.9-0.6c1.3-0.3,2.3-0.4,2.9-0.6c0.2,0,0.3,0,0.4,0.2
		c0,0.2,0.1,0.4,0.1,0.7c0,0.2,0,0.4,0.1,0.7c0,0.2,0.1,0.4,0.1,0.6c0.1,0.3,0.1,0.4,0.1,0.6s0,0.3-0.2,0.3c-0.8,0.1-2,0.3-3.6,0.5
		s-2.8,0.4-3.6,0.5c-0.8,0.1-3.1,0.6-7.2,1.5h-0.1c-0.1,0-0.3-0.1-0.3-0.2s-0.1-0.5-0.2-1.4c-0.2-1.1-0.4-2.2-0.5-3.1
		c-0.2-1.3-0.6-2.9-1.1-4.9c-0.1-0.2,0-0.4,0.2-0.5c0,0,0,0,0.1,0c0.2,0,0.5-0.1,0.9-0.2C25.9,99.4,26.3,99.3,26.6,99.2z"/>
	<path class="st0" d="M25.9,78.7c0.8,0.1,2.1,0.3,3.8,0.6s2.9,0.5,3.8,0.6l1.2,0.1l1.2,0.1C37,80.2,38,80.5,39,81
		c0.9,0.6,1.4,1.7,1.5,2.8c0.1,1.1,0.1,2.2-0.1,3.3c-0.3,2.5-0.9,4.1-1.9,4.8c-0.7,0.5-2.1,0.7-4,0.4l-1.2-0.2l-1.3-0.2
		c-0.9-0.1-2.4-0.3-4.7-0.5c-0.6-0.1-1.5-0.2-2.7-0.2h-0.2c-0.1,0-0.2-0.1-0.2-0.3s0.1-0.7,0.2-1.2s0.1-1,0.2-1.2s0.1-0.2,0.2-0.2
		c1.1,0.1,2.8,0.4,5,0.7c2.2,0.3,3.8,0.6,4.9,0.7c0.9,0.2,1.9,0,2.6-0.5c0.6-0.7,0.9-1.6,0.9-2.6c0.2-0.8,0.1-1.7-0.2-2.6
		c-0.4-0.7-1.2-1.2-2.1-1.2c-1.1-0.1-2.9-0.3-5.1-0.6s-4-0.4-5.1-0.6c-0.1,0-0.2-0.1-0.2-0.3c0-0.2,0-0.4,0.1-0.7
		c0.1-0.3,0.1-0.5,0.1-0.5c0-0.1,0-0.3,0-0.6s0-0.5,0-0.6S25.8,78.7,25.9,78.7z"/>
	<path class="st0" d="M44.6,65.8c0.2,0.1,0.3,0.2,0.4,0.3l0.4,0.3c0.2,0.1,0.6,0.3,1,0.6c0.1,0.1,0.1,0.2,0.1,0.3
		c-0.1,0.1-0.1,0.2-0.2,0.4c-0.7,1.2-1.3,2.4-1.8,3.7c-0.2,0.5-0.5,1.2-1,2.2s-0.7,1.7-0.9,2.2c-0.1,0.2-0.2,0.3-0.4,0.2
		c-0.7-0.3-1.8-0.9-3.3-1.6c-1.5-0.8-2.6-1.3-3.3-1.6c-0.7-0.3-2.2-0.9-4.3-1.8c-0.5-0.2-1.3-0.5-2.4-1h-0.1
		c-0.2-0.1-0.2-0.2-0.1-0.4c0.2-0.5,0.5-1.2,1-2.1s0.8-1.6,1-2.1c0.2-0.5,0.5-1.1,0.9-2s0.7-1.6,0.9-2s0.3-0.4,0.5-0.4
		c0.6,0.1,1.2,0.3,1.7,0.5c0.2,0.1,0.2,0.2,0.1,0.3c-0.3,0.6-0.7,1.4-1.2,2.5c-0.6,1.1-1,2-1.3,2.5c-0.2,0.5-0.3,0.9-0.2,1.1
		c0.1,0.2,0.4,0.4,1,0.7l1.5,0.7c0.2,0.1,0.5,0.2,0.7,0.3c0.2,0,0.4-0.1,0.5-0.4l0.1-0.3l0.2-0.3c0.6-1.3,1.1-2.5,1.5-3.5
		c0.2-0.4,0.3-0.9,0.5-1.5c0-0.2,0.1-0.2,0.3-0.1c0.1,0.1,0.5,0.3,0.9,0.5c0.3,0.2,0.7,0.4,1,0.5c0.1,0,0.1,0.2,0,0.4
		c-0.1,0.2-0.2,0.4-0.5,0.8s-0.6,1.2-1.2,2.5c-0.5,1.1-0.8,1.8-0.9,2.1c-0.1,0.2,0,0.5,0.2,0.7c0.3,0.1,0.5,0.2,0.8,0.3l1.5,0.7
		c0.7,0.3,1.2,0.4,1.4,0.3c0.4-0.3,0.6-0.7,0.8-1.2l0.5-1.1c0.2-0.5,0.7-1.8,1.5-4l0.1-0.2C44.3,65.8,44.4,65.7,44.6,65.8z"/>
	<path class="st0" d="M57.1,52.7c0.1,0.1,0.1,0.2,0,0.4c-0.2,0.2-0.5,0.3-0.8,0.4c-0.3,0.1-0.6,0.2-0.9,0.3c-0.2,1.7-0.9,3.2-2,4.5
		c-1.3,1.6-3.3,2.5-5.3,2.4c-2,0-4-0.8-5.5-2.2c-1.6-1.3-2.7-3.1-3-5.2c-0.3-2,0.3-4.1,1.7-5.6c0.7-0.9,1.7-1.5,2.7-1.9
		c1-0.4,2.2-0.6,3.3-0.5c0.1,0,0.2,0,0.3,0.1c0.2,0.4,0.2,0.8,0.3,1.3c0.1,0.4,0.1,0.8,0,1.2C47.6,48,47.3,48,47,48
		c-0.6,0-1.2,0.1-1.8,0.2c-0.7,0.2-1.4,0.6-1.9,1.1c-0.9,1-1.2,2.4-0.9,3.7c0.6,2.7,2.9,4.6,5.6,4.8c1.3,0.1,2.7-0.4,3.5-1.4
		c0.9-1,1.4-2.2,1.6-3.5l-1.7-1.2c-0.7-0.5-1.2-0.9-1.6-1.3c-0.1-0.1-0.1-0.2,0-0.3l0.4-0.5l0.4-0.5c0.1-0.1,0.2-0.3,0.4-0.5
		s0.3-0.4,0.4-0.5s0.2-0.1,0.4,0l0.8,0.8c0.4,0.3,0.7,0.6,0.8,0.8c0.8,0.7,1.9,1.6,3.3,2.7L57.1,52.7z"/>
	<path class="st0" d="M69.3,36.7c1.1,1.8,1.4,3.9,1,5.9c-0.8,3.9-4.6,6.4-8.5,5.6c-0.3-0.1-0.6-0.1-0.8-0.2c-4-1.4-6.3-5.5-5.5-9.7
		c0.8-3.8,4.5-6.3,8.4-5.6c0.3,0.1,0.6,0.1,0.9,0.3C66.7,33.6,68.3,34.9,69.3,36.7z M67,38c-0.7-1.2-1.7-2.1-3-2.6
		c-1.3-0.5-2.7-0.4-3.9,0.3c-1.2,0.7-2,1.9-2.2,3.2c-0.4,2.8,1.1,5.4,3.7,6.5c2.3,0.9,4.9-0.1,5.8-2.4c0.1-0.3,0.2-0.7,0.3-1
		C67.9,40.6,67.7,39.2,67,38z"/>
	<path class="st1" d="M97.8,37.3c0,0.1-0.1,0.3-0.2,0.4c-1.2,1.6-3.1,2.6-5.2,2.7c-2,0.1-4-0.7-5.3-2.2c-1.3-1.5-2-3.5-2-5.5
		c-0.1-2,0.5-4,1.7-5.7c1.2-1.6,3.1-2.6,5.2-2.6c2-0.2,3.9,0.6,5.2,2.1c0.1,0.1,0.2,0.2,0.2,0.4c-0.1,0.4-0.3,0.8-0.5,1.1
		c-0.4,0.6-0.6,0.9-0.7,0.9s-0.3-0.2-0.7-0.5c-0.4-0.4-0.8-0.7-1.2-0.9c-0.6-0.3-1.4-0.5-2.1-0.5c-1.3,0-2.6,0.7-3.3,1.8
		c-0.7,1.1-1,2.4-0.9,3.8c0,1.3,0.4,2.6,1.2,3.7c0.8,1.1,2.1,1.7,3.4,1.6c0.7,0,1.4-0.2,2-0.6c0.5-0.3,0.9-0.6,1.3-1
		c0.2-0.2,0.4-0.4,0.6-0.5c0.3,0.3,0.5,0.5,0.8,0.8C97.4,36.7,97.6,37,97.8,37.3z"/>
	<path class="st1" d="M112.2,40.9c-0.1,0.2-0.1,0.3-0.2,0.5l-0.2,0.5c-0.1,0.3-0.2,0.6-0.4,1.1c-0.1,0.1-0.2,0.2-0.3,0.1l-0.4-0.2
		c-1.3-0.5-2.6-0.9-4-1.2l-2.3-0.5c-1-0.2-1.8-0.4-2.3-0.6c-0.2-0.1-0.3-0.2-0.3-0.4c0.2-0.8,0.6-2,1-3.5c0.4-1.5,0.8-2.7,1-3.5
		s0.6-2.3,1-4.5c0.1-0.6,0.3-1.4,0.5-2.6v-0.1c0-0.2,0.2-0.2,0.3-0.2l2.2,0.6c1,0.3,1.7,0.5,2.2,0.6s1.2,0.3,2.1,0.5
		s1.7,0.4,2.1,0.5s0.5,0.2,0.5,0.5c0,0.6-0.1,1.2-0.2,1.8c-0.1,0.2-0.1,0.2-0.3,0.2c-0.6-0.1-1.5-0.4-2.7-0.8s-2.1-0.6-2.7-0.8
		c-0.4-0.2-0.8-0.2-1.2,0c-0.2,0.1-0.4,0.5-0.5,1.1l-0.4,1.6c-0.1,0.2-0.1,0.5-0.2,0.8c0,0.2,0.2,0.4,0.5,0.5l0.4,0.1l0.4,0.1
		c1.4,0.4,2.6,0.7,3.7,0.9c0.4,0.1,0.9,0.2,1.6,0.3c0.2,0,0.2,0.1,0.2,0.3c-0.1,0.3-0.2,0.7-0.3,1c-0.1,0.3-0.3,0.7-0.3,1
		c0,0.1-0.2,0.2-0.4,0.1c-0.2-0.1-0.4-0.1-0.9-0.3c-0.4-0.1-1.3-0.4-2.7-0.8c-1.2-0.3-1.9-0.5-2.2-0.5c-0.3-0.1-0.5,0.1-0.6,0.3
		c0,0,0,0.2-0.2,0.8l-0.4,1.6c-0.2,0.7-0.2,1.2,0,1.5c0.4,0.3,0.8,0.5,1.3,0.6l1.2,0.3c0.5,0.1,1.9,0.4,4.2,0.8h0.2
		C112.2,40.6,112.2,40.7,112.2,40.9z"/>
	<path class="st1" d="M125.8,50.6c0,0-0.1,0-0.2,0l-0.5-0.3l-0.5-0.3c-0.1-0.1-0.3-0.2-0.6-0.3s-0.5-0.2-0.6-0.3
		c-0.1-0.1-0.2-0.3-0.2-0.4c0-0.5,0.3-2.2,0.6-5c0-0.3-0.2-0.6-0.4-0.8c-0.1-0.1-0.4-0.2-0.8-0.5c-0.9-0.5-1.4-0.8-1.6-0.9
		s-0.3,0.1-0.5,0.4s-0.6,1.1-1.1,2s-0.8,1.6-1.1,2c0,0.1-0.2,0.2-0.3,0.1c0,0,0,0,0,0c-0.1-0.1-0.3-0.2-0.5-0.4
		c-0.3-0.3-0.7-0.5-1.1-0.7c-0.2-0.1-0.3-0.2-0.5-0.3c-0.2-0.1-0.2-0.2-0.1-0.3c0.4-0.7,1.1-1.7,2-3.1s1.5-2.4,2-3.1
		c1.2-2,2.3-4.2,3.5-6.5l0.1-0.2c0.1-0.1,0.2-0.1,0.5,0c0.5,0.3,1.3,0.8,2.4,1.4c1.1,0.6,1.9,1.1,2.4,1.4c1.2,0.7,2.2,1.7,2.8,3
		c0.5,1.3,0.3,2.8-0.5,3.9c-0.4,0.8-1,1.5-1.7,2c-0.7,0.5-1.6,0.7-2.4,0.7c-0.1,0-0.2,0-0.3,0.1c0,0.1-0.2,1.2-0.3,3.2
		C126.1,48.5,126,49.6,125.8,50.6z M128.2,40.6c0.6-0.8,0.8-1.9,0.4-2.8c-0.6-0.8-1.4-1.5-2.4-2c-1-0.6-1.6-0.8-1.7-0.7
		c-0.3,0.3-0.8,1.2-1.7,2.7l-1.1,1.8c0,0,0.1,0.1,0.1,0.1l0.5,0.4c0.6,0.4,1.2,0.8,1.9,1.2C126.1,42.2,127.4,42,128.2,40.6z"/>
	<path class="st1" d="M137.9,63.2c-0.1,0.1-0.1,0-0.3-0.1s-0.2-0.3-0.4-0.5s-0.3-0.4-0.4-0.5l-0.4-0.4c-0.2-0.2-0.4-0.3-0.4-0.4
		s0.1-0.7,0.7-1.7s0.8-1.6,0.6-1.8s-0.6-0.7-1.4-1.6l-1.1-1.3c-0.8-0.9-1.3-1.4-1.4-1.5s-0.8,0-1.8,0.5c-1,0.5-1.6,0.7-1.7,0.6
		l-1.6-1.8c-0.1-0.1-0.1-0.2,0-0.3c0.1-0.1,0.3-0.2,0.5-0.2l7.2-2.9c0.6-0.2,2.3-0.8,5.2-1.9c0.5-0.2,1.2-0.4,2.1-0.8
		c0.3-0.1,0.4-0.2,0.5-0.1c0.1,0.2,0.2,0.3,0.4,0.5c0.1,0.2,0.2,0.3,0.4,0.5c0.1,0.1,0.3,0.3,0.4,0.4c0.2,0.1,0.3,0.2,0.4,0.4
		c0,0,0,0.2-0.1,0.5s-1.3,2.5-3.2,6.3C139.3,60.4,137.9,63.1,137.9,63.2z M139,55.3c0.6-0.8,1-1.7,1.5-2.6c0.8-1.6,1.3-2.6,1.5-3.1
		c-3.9,1.4-5.9,2.2-6,2.3s-0.1,0.5,0.2,0.9l0.7,0.8l0.8,0.8C138.3,55.2,138.7,55.5,139,55.3z M148.9,47.5c-0.3,0.1-1.3-0.1-2.9-0.7
		c-1-0.3-1.9-0.7-2.7-1.2c-0.1-0.1,0-0.3,0.2-0.6c0.1-0.2,0.3-0.4,0.5-0.6c0,0,0.1,0,0.3,0c1.4,0.5,2.8,0.9,4.3,1.2
		c0.1,0,0.1,0,0.2,0.1c0,0.1,0,0.1,0,0.2c0,0.5,0.1,1,0.2,1.5C148.9,47.4,148.9,47.4,148.9,47.5L148.9,47.5z"/>
	<path class="st1" d="M145.7,80.2c-0.1,0.1-0.3,0-0.3-0.1c0,0,0,0,0,0c0-0.1-0.1-0.3-0.2-0.6s-0.1-0.4-0.2-0.6s-0.1-0.3-0.3-0.6
		s-0.2-0.4-0.3-0.5s0-0.3,0.2-0.4c0.9-0.3,2.1-0.8,3.9-1.5s3-1.1,3.9-1.5c0.1,0,0.2-0.1,0.2-0.2c0-0.1-0.1-0.1-0.2-0.1
		c-0.9,0-3.2,0-6.9,0c-0.7,0-1.6,0-2.7,0c-0.1,0-0.3-0.2-0.4-0.7c-0.3-0.6-0.3-1-0.3-1.1l1.9-1.9c1.1-1.1,2.8-2.8,4.9-5
		c0-0.1,0.1-0.1,0.1-0.2c-0.1,0-0.2,0-0.3,0c-0.9,0.3-2.2,0.9-3.9,1.6s-3,1.3-3.9,1.6c-0.2,0.1-0.4,0-0.4-0.1
		c-0.1-0.2-0.1-0.4-0.2-0.5c-0.1-0.2-0.1-0.4-0.2-0.5c-0.1-0.2-0.2-0.4-0.3-0.5c-0.1-0.2-0.2-0.4-0.3-0.5c-0.1-0.1,0-0.3,0.1-0.3
		c0.8-0.3,1.9-0.7,3.4-1.3s2.7-1,3.4-1.3s1.9-0.8,3.5-1.5s2.7-1.2,3.4-1.5c0.1,0,0.2,0,0.3,0.1c0.4,0.6,0.7,1.3,1,2
		c0,0.1-0.1,0.2-0.3,0.5c-2.9,3.1-5.6,5.8-7.9,8.1c-0.6,0.6-0.8,0.8-0.8,0.9s0.4,0.1,1,0.1c2.6,0,6.3,0,11.3-0.2
		c0.3,0,0.5,0.1,0.5,0.2s0.2,0.6,0.4,1s0.3,0.8,0.4,1.1c0.1,0.1,0,0.3-0.1,0.3c0,0,0,0,0,0c-0.8,0.3-1.9,0.8-3.5,1.3s-2.8,1-3.5,1.3
		s-1.9,0.8-3.3,1.4S146.4,79.9,145.7,80.2z"/>
	<path class="st1" d="M146.5,88.3c-0.1,0-0.2-0.1-0.3-0.3s0-0.3,0-0.6s0-0.5,0-0.6s-0.1-0.3-0.1-0.6s-0.1-0.5-0.1-0.6
		s0.1-0.3,0.2-0.3c0.8-0.1,2.1-0.2,3.7-0.4s2.9-0.3,3.8-0.3s2-0.3,3.6-0.6s2.8-0.5,3.6-0.6c0.2,0,0.3,0.1,0.3,0.2s0,0.3,0,0.6
		s0,0.5,0.1,0.7s0.1,0.3,0.1,0.6s0.1,0.4,0.1,0.6s0,0.3-0.2,0.3c-0.8,0.1-2,0.2-3.6,0.4s-2.9,0.3-3.6,0.4s-2.1,0.3-3.7,0.6
		S147.3,88.2,146.5,88.3z"/>
	<path class="st1" d="M148,105.8c-0.1,0-0.3-0.1-0.4-0.2c-1.4-1.5-2.1-3.5-1.9-5.5c0.1-2,1.2-3.9,2.9-5c3.6-2.1,8.1-1.6,11.1,1.2
		c1.4,1.4,2.1,3.5,1.9,5.5c-0.1,2-1.1,3.8-2.8,4.9c-0.1,0.1-0.3,0.1-0.4,0.1c-0.4-0.2-0.7-0.4-1-0.7c-0.6-0.4-0.8-0.7-0.8-0.8
		s0.2-0.3,0.6-0.6c0.4-0.3,0.8-0.7,1.1-1.1c0.4-0.6,0.7-1.3,0.8-2c0.2-1.3-0.3-2.6-1.3-3.5c-1-0.9-2.3-1.4-3.6-1.5
		c-1.3-0.2-2.7,0.1-3.8,0.7c-1.2,0.6-1.9,1.8-2,3.2c-0.1,0.7,0,1.4,0.3,2.1c0.2,0.5,0.5,1,0.9,1.4c0.2,0.2,0.3,0.4,0.5,0.7
		c-0.3,0.2-0.6,0.4-0.9,0.6C148.8,105.5,148.4,105.7,148,105.8z"/>
	<path class="st1" d="M139.3,121.5c-0.1,0-0.1-0.1,0-0.3s0.1-0.3,0.3-0.5s0.2-0.4,0.3-0.5s0.1-0.3,0.2-0.6s0.2-0.4,0.2-0.6
		s0.7-0.2,1.8-0.1s1.8,0.1,1.9-0.2s0.4-0.9,0.9-1.9l0.7-1.6c0.5-1.1,0.7-1.7,0.8-1.9s-0.3-0.7-1.2-1.4s-1.3-1.1-1.2-1.3l1-2.3
		c0.1-0.1,0.1-0.2,0.2-0.1c0.1,0.1,0.3,0.2,0.4,0.3l5.6,5.4c0.4,0.4,1.7,1.8,3.9,3.9c0.4,0.4,0.9,0.9,1.6,1.6
		c0.2,0.2,0.3,0.3,0.3,0.4c-0.1,0.2-0.2,0.4-0.3,0.5c-0.1,0.2-0.2,0.4-0.3,0.5c-0.1,0.2-0.1,0.4-0.2,0.6c0,0.2-0.1,0.4-0.2,0.6
		c0,0.1-0.2,0.1-0.5,0.1c-0.4,0-2.8-0.1-7.1-0.3C142.4,121.6,139.3,121.5,139.3,121.5z M146.8,119.2c1,0.2,2,0.2,3,0.2
		c1.8,0.1,2.9,0.1,3.5,0c-2.9-2.9-4.5-4.4-4.6-4.5c-0.2-0.1-0.5,0.1-0.7,0.6c0,0-0.2,0.3-0.4,1l-0.4,1
		C146.6,118.6,146.6,119.1,146.8,119.2L146.8,119.2z"/>
	<path class="st0" d="M109.1,139.6c-0.7,0-1.2-0.5-1.2-1.2c0-0.5,0.3-1,0.9-1.2c2.4-0.8,10.1-2.9,13.7-3.3c1.9-0.1,3.6-1,4.8-2.4
		c-0.7-0.3-3.3,0.3-4.3,0.6l-0.7,0.2c-2.4,0.6-9,1.7-9.3,1.7c-0.7,0.2-1.3-0.2-1.5-0.9s0.2-1.3,0.9-1.5c0.1,0,0.1,0,0.2,0
		c0.1,0,6.8-1.1,9.1-1.7l0.7-0.2c2.8-0.7,6.2-1.5,7.2,0.9c0.3,0.8,0.2,1.6-0.3,2.3c-0.9,1.6-3.5,3.3-6.6,3.6
		c-3.4,0.3-10.9,2.4-13.2,3.2C109.4,139.5,109.3,139.6,109.1,139.6z"/>
	<path class="st0" d="M92.2,84.5c-10-0.2-12.9-5.3-14.3-9.8c-1.6-5,1-11.3,2.8-14.1c0.4-0.6,1.1-0.8,1.7-0.4
		c0.2,0.1,0.4,0.3,0.5,0.6c0.7,1.5,2.1,3.6,2.9,3.4c1-0.2,2.4-2.2,2.9-4.9c0.2-1,0.6-4.5-1.8-6.1c-0.6-0.4-0.7-1.1-0.4-1.7
		c0.2-0.3,0.6-0.6,1-0.6c2.5,0,5,0.7,7.1,2.1c1.7,1.3,4,3.5,3.8,7c-0.3,6,0.5,6.8,0.6,6.9c1.3,0.1,2.9-1.7,3.5-4
		c0.1-0.5,0.6-0.9,1.1-0.9c0.5,0,1,0.2,1.2,0.7c0.1,0.3,3,6.6,1.7,12.3C105.7,79.5,103.2,84.5,92.2,84.5z M81.8,63.8
		c-1.3,2.8-2.5,6.9-1.5,10.1c1.3,4.1,3.6,7.9,11.9,8c9.2,0,11.3-3.5,12.1-7.3c0.5-2.7,0.2-5.5-0.6-8.1c-1.2,1.7-2.9,3-4.8,2.8
		c-2.7-0.2-3.1-3.9-2.8-9.5c0.1-2.4-1.5-3.9-2.9-5c-0.8-0.6-1.7-1-2.6-1.2c0.8,1.9,1,3.9,0.6,5.9c-0.5,2.9-2.3,6.3-4.8,6.8
		C84.4,67,82.8,65.3,81.8,63.8z"/>
	<path class="st0" d="M123.9,106.5c-0.3,0-0.5,0-0.8-0.2c-0.6-0.4-0.8-1.1-0.4-1.7c0,0,0,0,0,0c2-3.4,1.4-9.9,1.4-10
		c-0.1-0.7,0.4-1.3,1.1-1.4c0,0,0,0,0,0l0,0c0.7-0.1,1.3,0.4,1.4,1.1c0,0.3,0.8,7.5-1.7,11.6C124.6,106.2,124.2,106.5,123.9,106.5z"
		/>
	<path class="st0" d="M72.2,150.9c-2.1,0-3.9-0.1-5.5-0.2c-5.1-0.5-15-1.2-22.7-1.4c-0.7-0.1-1.2-0.7-1.1-1.4
		c0.1-0.6,0.6-1.1,1.2-1.1c7.8,0.3,17.7,0.9,22.8,1.4c9.1,0.9,23.7-0.8,26-3.8l0.7-0.8c1.5-1.8,5.5-6.5,5.9-8.8
		c0.7-4,0.9-8,0.7-12.1c-0.1-0.8-0.1-1.6-0.1-2.3c0-2.3-0.2-2.3-0.9-2.4c-0.4,0-0.5,0.1-0.6,0.1c-0.6,0.5-0.7,2.2-0.6,5.1
		s-1.8,7.5-3.6,11.7l-0.4,1c-2.1,4.9-11.2,6.9-12.8,6.7c-0.7,0-1.2-0.6-1.2-1.3c0-0.7,0.6-1.2,1.3-1.2c1.3,0.1,8.9-1.8,10.4-5.2
		l0.5-1.1c1.2-2.6,3.6-8.1,3.4-10.5c-0.2-2.8-0.2-5.7,1.3-7.1c0.7-0.6,1.6-0.9,2.6-0.8c3.1,0.4,3.1,3,3.1,4.8c0,0.7,0,1.4,0.1,2.1
		c0.2,4.3,0,8.6-0.7,12.8c-0.5,2.6-3.6,6.5-6.5,10L95,146C92.1,149.6,80.6,150.9,72.2,150.9z"/>
	<path class="st0" d="M42.3,128.4c-7.4,0-9.8-0.8-9.9-0.9c-0.6-0.2-1-0.9-0.7-1.6c0.2-0.6,0.9-1,1.6-0.7c0,0,3.7,1.2,16,0.5
		c6-0.3,12.8-2.4,15.9-4.2c0.6-0.4,1.3-0.2,1.7,0.3c0.4,0.6,0.2,1.3-0.3,1.7c-0.1,0-0.1,0.1-0.2,0.1c-3.9,2.3-11.2,4.3-17,4.6
		C46.7,128.4,44.3,128.4,42.3,128.4z"/>
	<path class="st0" d="M94.3,146.2c-0.5,0-1-0.3-1.2-0.8c-0.3-0.6,0.1-1.4,0.7-1.6c3.4-1.4,12.7-5.2,14.5-6.6
		c2.1-1.6,5.1-8.9,5.9-12.5c1-4.4,0.9-10.4-0.1-10.8l0,0c-1.5,0-1.7,4-1.8,6.4c0,1-0.1,2-0.3,3c-0.5,2.1-4.9,7.8-6.7,9.1
		c-0.1,0.1-0.2,0.1-0.3,0.1c-1.1,0.6-2.3,0.8-3.5,0.6c-0.7-0.2-1.1-0.8-0.9-1.5c0.2-0.7,0.8-1.1,1.5-0.9c0.6,0,1.2-0.1,1.8-0.3
		c1.6-1.3,5.4-6.4,5.7-7.7c0.1-0.8,0.2-1.7,0.2-2.5c0.1-3.5,0.3-8.8,4.2-8.8c0.8,0,1.6,0.4,2.1,1c2.4,3,0.5,12.7,0.5,12.8
		c-0.8,3.5-3.8,11.6-6.8,13.9c-2.4,1.9-13.8,6.5-15.1,7C94.6,146.2,94.5,146.2,94.3,146.2z"/>
	<path class="st0" d="M113.9,131.6c-0.4,0-0.7-0.2-0.9-0.4c-0.4-0.5-0.4-1.3,0.1-1.7c0,0,0,0,0,0c4.3-3.7,6-8.5,6-9.9
		c0-0.8,0.1-1.5,0.3-2.3c0.2-1.2,0.6-3.3,0.2-3.9c0,0,0,0-0.2-0.1c-1.2-0.2-2,2.5-2.1,3.1c-0.1,0.7-0.7,1.1-1.4,1
		c-0.7-0.1-1.1-0.7-1-1.4l0,0c0.3-2.1,1.8-5.6,4.8-5.2c0.7,0.1,1.4,0.5,1.8,1.1c1,1.4,0.6,3.8,0.2,5.8c-0.1,0.6-0.2,1.2-0.3,1.8
		c0,2.5-2.4,7.9-6.9,11.8C114.5,131.5,114.2,131.6,113.9,131.6z"/>
	<path class="st0" d="M94.4,132.7h-1.9c-11.3,0-19.9-4.8-26.8-8.7l-0.6-0.3c-1.7-1.1-3.2-2.6-4.2-4.3c-0.3-0.5-0.6-0.9-1-1.3
		c-7.8-10-10.3-19.7-7.7-29.6c0.7-2.8,7.1-2.6,27.3-0.5c5.5,0.6,10.8,1.1,12.9,1c5.2-0.2,10.4-0.6,15.4-1c2.5-0.2,5-0.4,7.3-0.5
		c12.6-0.8,16.6-0.7,17.8,0.3c1.5,1.3,2.5,16.5-4,26c-0.6,0.9-5.9,8.6-9.7,12c-0.5,0.5-1.3,0.4-1.8-0.1c-0.5-0.5-0.4-1.3,0.1-1.8
		c2.9-2.6,7.2-8.5,9.3-11.6c5.6-8.2,4.8-20.4,4.3-22.8c-1.9-0.5-12,0.1-15.8,0.4c-2.3,0.1-4.8,0.3-7.3,0.5c-5,0.4-10.2,0.8-15.5,1
		c-2.3,0.1-7.3-0.4-13.2-1c-7.9-0.8-22.5-2.3-24.7-1.2c-2.3,9,0,18,7.3,27.2c0.4,0.5,0.7,1,1,1.5c0.9,1.4,2,2.7,3.4,3.6l0.6,0.3
		c7,3.9,15,8.4,25.6,8.4h2.3c0.7,0,1.3,0.5,1.3,1.2c0,0.7-0.5,1.3-1.2,1.3L94.4,132.7z"/>
	<path class="st0" d="M71.6,119.8c-8.5-4.3-9.1-11-9.2-11.3c-0.1-0.7,0.5-1.3,1.1-1.3c0.7-0.1,1.3,0.5,1.3,1.1
		c0,0.3,0.6,5.7,8.1,9.4c0.6,0.3,0.9,1.1,0.6,1.7c-0.3,0.6-1,0.9-1.6,0.6c0,0,0,0,0,0L71.6,119.8z"/>
	<path class="st0" d="M87.6,78.5c-0.1,0-0.1,0-0.2,0c-2.9-0.5-3.4-2.3-3.6-3c-0.2-0.7,0.2-1.3,0.9-1.5c0.7-0.2,1.3,0.2,1.5,0.9
		c0.1,0.5,0.3,1,1.6,1.3c0.7,0.1,1.1,0.8,1,1.4C88.7,78.2,88.2,78.6,87.6,78.5L87.6,78.5z"/>
</g>
</svg>
