<?xml version="1.0" encoding="utf-8"?>
<!-- Generator: Adobe Illustrator 24.0.0, SVG Export Plug-In . SVG Version: 6.00 Build 0)  -->
<svg version="1.1" id="Capa_1" xmlns="http://www.w3.org/2000/svg" xmlns:xlink="http://www.w3.org/1999/xlink" x="0px" y="0px"
	 viewBox="0 0 100 75.7" style="enable-background:new 0 0 100 75.7;" xml:space="preserve">
<style type="text/css">
	.st0{fill:#30B3A1;}
</style>
<g>
	<path class="st0" d="M24.6,55.7L47,42.5L24.5,29.2v25.7C24.5,55.1,24.6,55.4,24.6,55.7z"/>
	<path class="st0" d="M47.9,43.1L25,56.6c0.6,1.1,1.7,1.8,3,1.8H72c1.4,0,2.7-0.9,3.2-2.1L52.7,43.1l-2.4,1.4L47.9,43.1z"/>
	<path class="st0" d="M75.5,54.9V29.7L53.7,42.5l21.7,12.8C75.4,55.2,75.5,55,75.5,54.9z"/>
	<path class="st0" d="M28,24.4c-2,0-3.6,1.6-3.6,3.6v0.1l25.8,15.2l25.1-14.9v-0.5c0-2-1.6-3.6-3.6-3.6L28,24.4L28,24.4z"/>
</g>
</svg>
