<?xml version="1.0" encoding="utf-8"?>
<!-- Generator: Adobe Illustrator 24.0.0, SVG Export Plug-In . SVG Version: 6.00 Build 0)  -->
<svg version="1.1" id="Capa_1" xmlns="http://www.w3.org/2000/svg" xmlns:xlink="http://www.w3.org/1999/xlink" x="0px" y="0px"
	 viewBox="0 0 100 75.7" style="enable-background:new 0 0 100 75.7;" xml:space="preserve">
<style type="text/css">
	.st0{fill-rule:evenodd;clip-rule:evenodd;fill:#30B3A1;}
</style>
<g id="XMLID_2331_">
	<g id="XMLID_2332_">
		<path id="XMLID_2334_" class="st0" d="M71.1,38.5c-0.4-13.6-11.4-24.3-25-24.3C32.6,14.2,21.6,24.8,21,38c0,0.4,0,0.7,0,1.1
			c0,4.7,1.3,9.1,3.6,12.8L20,65.3l13.9-4.4c3.6,2,7.7,3.1,12.1,3.1c13.9,0,25.1-11.2,25.1-24.9C71.1,38.9,71.1,38.6,71.1,38.5z
			 M46.1,60c-4.3,0-8.3-1.3-11.6-3.4l-8.1,2.6l2.6-7.8c-2.5-3.4-4-7.7-4-12.3c0-0.7,0-1.4,0.1-2c1.1-10.6,10.1-18.9,21-18.9
			c11.1,0,20.1,8.5,21.1,19.3c0,0.6,0.1,1.1,0.1,1.6C67.2,50.6,57.7,60,46.1,60z"/>
		<path id="XMLID_2333_" class="st0" d="M57.6,44.2c-0.6-0.4-3.7-1.8-4.3-2c-0.6-0.2-0.9-0.4-1.4,0.4c-0.4,0.6-1.5,2-1.9,2.4
			s-0.7,0.5-1.3,0.1c-0.6-0.4-2.6-0.9-5-3.1c-1.8-1.6-3.1-3.7-3.4-4.2c-0.4-0.6,0-0.9,0.2-1.3c0.2-0.2,0.6-0.7,0.9-1.1
			c0.1-0.1,0.1-0.2,0.2-0.2c0.1-0.2,0.2-0.5,0.4-0.7c0.2-0.4,0.1-0.7,0-1.1c-0.1-0.4-1.4-3.3-1.9-4.5c-0.5-1.2-1.1-1.1-1.4-1.1
			s-0.7,0-1.2,0c-0.4,0-1.1,0.1-1.7,0.7c-0.6,0.6-2.1,2.1-2.1,5.1c0,0.7,0.1,1.4,0.4,2.1c0.6,2.1,2,3.9,2.2,4.2
			c0.4,0.4,4.3,6.7,10.5,9.2c6.3,2.5,6.3,1.6,7.3,1.5c1.2-0.1,3.7-1.4,4.1-2.9c0.5-1.4,0.5-2.6,0.4-2.9
			C58.5,44.5,58.2,44.4,57.6,44.2z"/>
	</g>
</g>
</svg>
